
<svg width="800" height="600" viewBox="0 0 800 600" fill="none" xmlns="http://www.w3.org/2000/svg">
  <rect width="800" height="600" fill="#F3F4F6"/>
  <path d="M600 300C600 371.797 541.797 430 470 430H330C258.203 430 200 371.797 200 300C200 228.203 258.203 170 330 170H470C541.797 170 600 228.203 600 300Z" fill="#E5E7EB"/>
  <path fillRule="evenodd" clipRule="evenodd" d="M536 262.5H264C258.5 262.5 254 267 254 272.5V327.5C254 333 258.5 337.5 264 337.5H536C541.5 337.5 546 333 546 327.5V272.5C546 267 541.5 262.5 536 262.5ZM264 258.5C256.268 258.5 250 264.768 250 272.5V327.5C250 335.232 256.268 341.5 264 341.5H536C543.732 341.5 550 335.232 550 327.5V272.5C550 264.768 543.732 258.5 536 258.5H264Z" fill="#9CA3AF"/>
  <circle cx="295" cy="300" r="25" fill="#9CA3AF"/>
  <circle cx="295" cy="300" r="15" fill="#D1D5DB"/>
  <circle cx="505" cy="300" r="25" fill="#9CA3AF"/>
  <circle cx="505" cy="300" r="15" fill="#D1D5DB"/>
  <path d="M410 262.5V260C410 248.954 401.046 240 390 240H325C313.954 240 305 248.954 305 260V262.5H410Z" fill="#9CA3AF"/>
  <path d="M495 262.5V260C495 248.954 486.046 240 475 240H410C398.954 240 390 248.954 390 260V262.5H495Z" fill="#9CA3AF"/>
  <path d="M495 337.5V355C495 366.046 486.046 375 475 375H325C313.954 375 305 366.046 305 355V337.5H495Z" fill="#9CA3AF"/>
  <path d="M550 290H583.787C587.063 290 589.787 292.724 589.787 296V304C589.787 307.276 587.063 310 583.787 310H550V290Z" fill="#9CA3AF"/>
  <path d="M250 290H216.213C212.937 290 210.213 292.724 210.213 296V304C210.213 307.276 212.937 310 216.213 310H250V290Z" fill="#9CA3AF"/>
  <path fillRule="evenodd" clipRule="evenodd" d="M345 280C345 276.686 347.686 274 351 274H449C452.314 274 455 276.686 455 280V320C455 323.314 452.314 326 449 326H351C347.686 326 345 323.314 345 320V280ZM351 278C349.895 278 349 278.895 349 280V320C349 321.105 349.895 322 351 322H449C450.105 322 451 321.105 451 320V280C451 278.895 450.105 278 449 278H351Z" fill="#9CA3AF"/>
</svg>
